# xmcd CD database file
#
# Track frame offsets:
#	150
#	13817
#	32068
#	48942
#	66738
#	84231
#	96831
#	112150
#	130420
#	146787
#	159638
#	172314
#	190174
#	206319
#	234508
#	252312
#	265871
#	277600
#	302887
#	320449
#
# Disc length: 4488 seconds
#
# Revision: 0
# Processed by: cddbd v1.5.2PL0 Copyright (c) Steve Scherf et al.
# Submitted via: CDex 1.51
#
DISCID=26118614
DTITLE=The Real Book Play-Along - Volume I S-Z CD2
DYEAR=1900
DGENRE=Jazz
TTITLE0=A String of Pearls
TTITLE1=Sugar
TTITLE2=A Sunday Kind of Love
TTITLE3=The Surrey with the Fringe on Top
TTITLE4=Sweet Georgia Bright
TTITLE5=Take Five
TTITLE6=Take The A Train
TTITLE7=Thanks for the Memory
TTITLE8=There Is No Greater Love
TTITLE9=There Will Never Be Another You
TTITLE10=Think on Me
TTITLE11=Thou Swell
TTITLE12=Time Remembered
TTITLE13=Tones for Joan's Bones
TTITLE14=Topsy
TTITLE15=Tour de Force
TTITLE16=Tune Up
TTITLE17=Turn Out the Stars
TTITLE18=Unchain My Heart
TTITLE19=Up Jumped Spring
EXTD=
EXTT0=
EXTT1=
EXTT2=
EXTT3=
EXTT4=
EXTT5=
EXTT6=
EXTT7=
EXTT8=
EXTT9=
EXTT10=
EXTT11=
EXTT12=
EXTT13=
EXTT14=
EXTT15=
EXTT16=
EXTT17=
EXTT18=
EXTT19=
PLAYORDER=
